<svg width="18" height="20" viewBox="0 0 18 20" fill="none" xmlns="http://www.w3.org/2000/svg">
<path fill-rule="evenodd" clip-rule="evenodd" d="M11 3.25C11 1.45507 12.4551 0 14.25 0C16.0449 0 17.5 1.45507 17.5 3.25C17.5 5.04493 16.0449 6.5 14.25 6.5C13.2904 6.5 12.4279 6.08409 11.833 5.4227L9.11566 6.90487L6.07515 8.64231C6.34552 9.11641 6.5 9.66516 6.5 10.25C6.5 10.5463 6.46034 10.8334 6.38603 11.1062L11.833 14.0773C12.4279 13.4159 13.2904 13 14.25 13C16.0449 13 17.5 14.4551 17.5 16.25C17.5 18.0449 16.0449 19.5 14.25 19.5C12.4551 19.5 11 18.0449 11 16.25C11 15.9536 11.0397 15.6666 11.114 15.3938L5.66704 12.4227C5.07212 13.0841 4.20963 13.5 3.25 13.5C1.45507 13.5 0 12.0449 0 10.25C0 8.45507 1.45507 7 3.25 7C3.90068 7 4.5067 7.19122 5.01492 7.52052L8.38435 5.59514L11.114 4.10625C11.0397 3.83344 11 3.54635 11 3.25ZM14.25 1.5C13.2835 1.5 12.5 2.2835 12.5 3.25C12.5 4.2165 13.2835 5 14.25 5C15.2165 5 16 4.2165 16 3.25C16 2.2835 15.2165 1.5 14.25 1.5ZM3.25 8.5C2.2835 8.5 1.5 9.2835 1.5 10.25C1.5 11.2165 2.2835 12 3.25 12C4.2165 12 5 11.2165 5 10.25C5 9.2835 4.2165 8.5 3.25 8.5ZM12.5 16.25C12.5 15.2835 13.2835 14.5 14.25 14.5C15.2165 14.5 16 15.2835 16 16.25C16 17.2165 15.2165 18 14.25 18C13.2835 18 12.5 17.2165 12.5 16.25Z" fill="black"/>
</svg>
