<svg width="22" height="22" viewBox="0 0 22 22" fill="none" xmlns="http://www.w3.org/2000/svg">
<path fill-rule="evenodd" clip-rule="evenodd" d="M11.5 0.75C11.5 0.335786 11.1642 0 10.75 0C10.3358 0 10 0.335786 10 0.75V2.53363C6.04215 2.89029 2.89029 6.04215 2.53363 10H0.75C0.335786 10 0 10.3358 0 10.75C0 11.1642 0.335786 11.5 0.75 11.5H2.53363C2.89029 15.4579 6.04215 18.6097 10 18.9664V20.75C10 21.1642 10.3358 21.5 10.75 21.5C11.1642 21.5 11.5 21.1642 11.5 20.75V18.9664C15.4579 18.6097 18.6097 15.4579 18.9664 11.5H20.75C21.1642 11.5 21.5 11.1642 21.5 10.75C21.5 10.3358 21.1642 10 20.75 10H18.9664C18.6097 6.04215 15.4579 2.89029 11.5 2.53363V0.75ZM7 10.75C7 8.67893 8.67893 7 10.75 7C12.8211 7 14.5 8.67893 14.5 10.75C14.5 12.8211 12.8211 14.5 10.75 14.5C8.67893 14.5 7 12.8211 7 10.75Z" fill="#44ff00ff"/>
</svg>
