<svg width="22" height="22" viewBox="0 0 22 22" fill="none" xmlns="http://www.w3.org/2000/svg">
<path d="M10.75 7C8.67893 7 7 8.67893 7 10.75C7 12.8211 8.67893 14.5 10.75 14.5C12.8211 14.5 14.5 12.8211 14.5 10.75C14.5 8.67893 12.8211 7 10.75 7Z" fill="black"/>
<path fill-rule="evenodd" clip-rule="evenodd" d="M10.75 0C11.1642 0 11.5 0.335786 11.5 0.75V2.03169C15.7342 2.39113 19.1089 5.76581 19.4683 10H20.75C21.1642 10 21.5 10.3358 21.5 10.75C21.5 11.1642 21.1642 11.5 20.75 11.5H19.4683C19.1089 15.7342 15.7342 19.1089 11.5 19.4683V20.75C11.5 21.1642 11.1642 21.5 10.75 21.5C10.3358 21.5 10 21.1642 10 20.75V19.4683C5.76581 19.1089 2.39113 15.7342 2.03169 11.5H0.75C0.335786 11.5 0 11.1642 0 10.75C0 10.3358 0.335786 10 0.75 10H2.03169C2.39113 5.76581 5.76581 2.39113 10 2.03169V0.75C10 0.335786 10.3358 0 10.75 0ZM3.5 10.75C3.5 14.7541 6.74594 18 10.75 18C14.7541 18 18 14.7541 18 10.75C18 6.74594 14.7541 3.5 10.75 3.5C6.74594 3.5 3.5 6.74594 3.5 10.75Z" fill="black"/>
</svg>
