<?xml version="1.0" encoding="UTF-8" standalone="no"?>
<!DOCTYPE svg PUBLIC "-//W3C//DTD SVG 1.1//EN" "http://www.w3.org/Graphics/SVG/1.1/DTD/svg11.dtd">
<svg width="100%" height="100%" viewBox="0 0 1102 330" version="1.1" xmlns="http://www.w3.org/2000/svg" xmlns:xlink="http://www.w3.org/1999/xlink" xml:space="preserve" xmlns:serif="http://www.serif.com/" style="fill-rule:evenodd;clip-rule:evenodd;stroke-linejoin:round;stroke-miterlimit:2;">
    <g transform="matrix(1,0,0,1,-166.796239,-122.342108)">
        <g>
            <g transform="matrix(2.368154,0,0,7.501157,-1000.259127,-9102.330207)">
                <path d="M516.34,1270.795C515.266,1271.083 514.232,1271.287 513.238,1271.406C512.245,1271.524 511.179,1271.584 510.04,1271.584C508.161,1271.584 506.716,1271.439 505.707,1271.149C504.697,1270.859 504.192,1270.488 504.192,1270.037C504.192,1269.773 504.383,1269.531 504.764,1269.313C505.145,1269.094 505.645,1268.918 506.262,1268.786C506.88,1268.654 507.575,1268.554 508.349,1268.486C508.918,1268.439 509.777,1268.393 510.927,1268.349C513.268,1268.261 514.992,1268.155 516.098,1268.033C516.109,1267.908 516.114,1267.828 516.114,1267.794C516.114,1267.421 515.84,1267.159 515.293,1267.006C514.551,1266.799 513.451,1266.696 511.99,1266.696C510.626,1266.696 509.619,1266.771 508.969,1266.922C508.319,1267.073 507.839,1267.34 507.527,1267.723L504.692,1267.601C504.949,1267.218 505.374,1266.908 505.964,1266.673C506.555,1266.437 507.409,1266.256 508.526,1266.129C509.643,1266.001 510.937,1265.938 512.409,1265.938C513.869,1265.938 515.056,1265.992 515.969,1266.101C516.882,1266.209 517.553,1266.346 517.983,1266.51C518.413,1266.675 518.713,1266.882 518.885,1267.133C518.982,1267.289 519.03,1267.571 519.03,1267.977L519.03,1269.198C519.03,1270.049 519.092,1270.588 519.216,1270.813C519.339,1271.039 519.583,1271.255 519.949,1271.462L516.92,1271.462C516.619,1271.272 516.426,1271.05 516.34,1270.795ZM516.098,1268.751C515.046,1268.886 513.467,1269.001 511.362,1269.096C510.169,1269.151 509.326,1269.212 508.832,1269.28C508.338,1269.347 507.957,1269.447 507.688,1269.577C507.42,1269.708 507.285,1269.853 507.285,1270.012C507.285,1270.256 507.578,1270.46 508.164,1270.622C508.749,1270.785 509.605,1270.866 510.733,1270.866C511.85,1270.866 512.844,1270.789 513.714,1270.635C514.584,1270.481 515.223,1270.27 515.631,1270.002C515.942,1269.795 516.098,1269.49 516.098,1269.086L516.098,1268.751Z" style="fill-rule:nonzero;"/>
                <path d="M523.493,1271.462L523.493,1266.06L526.103,1266.06L526.103,1266.879C526.769,1266.496 527.384,1266.243 527.948,1266.121C528.511,1265.999 529.132,1265.938 529.808,1265.938C530.786,1265.938 531.779,1266.036 532.789,1266.233L531.79,1267.082C531.081,1266.95 530.372,1266.884 529.663,1266.884C529.03,1266.884 528.46,1266.944 527.956,1267.064C527.451,1267.185 527.091,1267.352 526.876,1267.565C526.554,1267.891 526.393,1268.247 526.393,1268.634L526.393,1271.462L523.493,1271.462Z" style="fill-rule:nonzero;"/>
                <path d="M540.844,1270.643L541.263,1271.451C540.447,1271.506 539.717,1271.533 539.072,1271.533C538.02,1271.533 537.203,1271.48 536.623,1271.375C536.043,1271.27 535.635,1271.132 535.399,1270.961C535.163,1270.789 535.044,1270.429 535.044,1269.88L535.044,1266.772L532.918,1266.772L532.918,1266.06L535.044,1266.06L535.044,1264.722L537.928,1264.173L537.928,1266.06L540.844,1266.06L540.844,1266.772L537.928,1266.772L537.928,1269.931C537.928,1270.192 537.979,1270.36 538.081,1270.434C538.183,1270.509 538.35,1270.568 538.581,1270.612C538.812,1270.656 539.142,1270.678 539.572,1270.678C539.894,1270.678 540.318,1270.666 540.844,1270.643Z" style="fill-rule:nonzero;"/>
                <path d="M543.696,1265.058L543.696,1264.005L546.596,1264.005L546.596,1265.058L543.696,1265.058ZM543.696,1271.462L543.696,1266.06L546.596,1266.06L546.596,1271.462L543.696,1271.462Z" style="fill-rule:nonzero;"/>
                <path d="M551.784,1271.462L551.784,1266.767L549.206,1266.767L549.206,1266.06L551.784,1266.06L551.784,1265.536C551.784,1265 552.149,1264.59 552.879,1264.305C553.609,1264.02 554.764,1263.878 556.343,1263.878C557.406,1263.878 558.389,1263.917 559.291,1263.995L558.84,1264.768C558.271,1264.738 557.75,1264.722 557.277,1264.722C556.278,1264.722 555.596,1264.785 555.231,1264.91C554.866,1265.036 554.683,1265.302 554.683,1265.709L554.683,1266.06L558.002,1266.06L558.002,1266.767L554.683,1266.767L554.683,1271.462L551.784,1271.462ZM560.193,1265.058L560.193,1264.005L563.093,1264.005L563.093,1265.058L560.193,1265.058ZM560.193,1271.462L560.193,1266.06L563.093,1266.06L563.093,1271.462L560.193,1271.462Z" style="fill-rule:nonzero;"/>
                <path d="M578.672,1269.483L581.524,1269.6C581.213,1270.22 580.415,1270.706 579.132,1271.057C577.848,1271.408 576.272,1271.584 574.403,1271.584C572.062,1271.584 570.179,1271.342 568.756,1270.859C567.333,1270.376 566.622,1269.683 566.622,1268.781C566.622,1268.198 566.928,1267.688 567.54,1267.25C568.152,1266.813 569.084,1266.485 570.335,1266.266C571.586,1266.047 572.948,1265.938 574.419,1265.938C576.277,1265.938 577.797,1266.086 578.979,1266.383C580.16,1266.68 580.917,1267.101 581.25,1267.647L578.431,1267.784C578.162,1267.421 577.687,1267.148 577.005,1266.965C576.323,1266.782 575.499,1266.691 574.532,1266.691C573.071,1266.691 571.884,1266.856 570.971,1267.187C570.059,1267.517 569.602,1268.04 569.602,1268.756C569.602,1269.481 570.042,1270.009 570.923,1270.337C571.804,1270.666 572.953,1270.831 574.371,1270.831C575.509,1270.831 576.46,1270.721 577.222,1270.5C577.985,1270.28 578.468,1269.941 578.672,1269.483Z" style="fill-rule:nonzero;"/>
                <path d="M584.021,1265.058L584.021,1264.005L586.921,1264.005L586.921,1265.058L584.021,1265.058ZM584.021,1271.462L584.021,1266.06L586.921,1266.06L586.921,1271.462L584.021,1271.462Z" style="fill-rule:nonzero;"/>
                <path d="M602.5,1270.795C601.426,1271.083 600.392,1271.287 599.399,1271.406C598.405,1271.524 597.339,1271.584 596.201,1271.584C594.321,1271.584 592.877,1271.439 591.867,1271.149C590.858,1270.859 590.353,1270.488 590.353,1270.037C590.353,1269.773 590.543,1269.531 590.925,1269.313C591.306,1269.094 591.805,1268.918 592.423,1268.786C593.041,1268.654 593.736,1268.554 594.509,1268.486C595.079,1268.439 595.938,1268.393 597.087,1268.349C599.429,1268.261 601.152,1268.155 602.259,1268.033C602.269,1267.908 602.275,1267.828 602.275,1267.794C602.275,1267.421 602.001,1267.159 601.453,1267.006C600.712,1266.799 599.611,1266.696 598.15,1266.696C596.786,1266.696 595.779,1266.771 595.13,1266.922C594.48,1267.073 593.999,1267.34 593.688,1267.723L590.852,1267.601C591.11,1267.218 591.534,1266.908 592.125,1266.673C592.716,1266.437 593.57,1266.256 594.687,1266.129C595.804,1266.001 597.098,1265.938 598.569,1265.938C600.03,1265.938 601.217,1265.992 602.13,1266.101C603.043,1266.209 603.714,1266.346 604.144,1266.51C604.573,1266.675 604.874,1266.882 605.046,1267.133C605.142,1267.289 605.191,1267.571 605.191,1267.977L605.191,1269.198C605.191,1270.049 605.253,1270.588 605.376,1270.813C605.5,1271.039 605.744,1271.255 606.109,1271.462L603.08,1271.462C602.78,1271.272 602.586,1271.05 602.5,1270.795ZM602.259,1268.751C601.206,1268.886 599.627,1269.001 597.522,1269.096C596.33,1269.151 595.487,1269.212 594.993,1269.28C594.499,1269.347 594.117,1269.447 593.849,1269.577C593.58,1269.708 593.446,1269.853 593.446,1270.012C593.446,1270.256 593.739,1270.46 594.324,1270.622C594.909,1270.785 595.766,1270.866 596.894,1270.866C598.011,1270.866 599.004,1270.789 599.874,1270.635C600.744,1270.481 601.383,1270.27 601.791,1270.002C602.103,1269.795 602.259,1269.49 602.259,1269.086L602.259,1268.751Z" style="fill-rule:nonzero;"/>
                <rect x="609.621" y="1264.005" width="2.9" height="7.456" style="fill-rule:nonzero;"/>
                <path d="M632.273,1270.256L632.273,1268.211L625.845,1268.211L625.845,1267.357L632.273,1267.357L632.273,1265.328L635.012,1265.328L635.012,1267.357L641.44,1267.357L641.44,1268.211L635.012,1268.211L635.012,1270.256L632.273,1270.256Z" style="fill-rule:nonzero;"/>
                <path d="M659.323,1264.005L659.323,1266.747C660.784,1266.207 662.529,1265.938 664.559,1265.938C665.601,1265.938 666.541,1265.999 667.379,1266.121C668.216,1266.243 668.847,1266.399 669.272,1266.589C669.696,1266.779 669.986,1266.989 670.142,1267.22C670.297,1267.45 670.375,1267.808 670.375,1268.293L670.375,1271.462L665.848,1271.462L665.848,1268.608C665.848,1268.042 665.762,1267.682 665.59,1267.53C665.418,1267.377 665.115,1267.256 664.68,1267.166C664.245,1267.076 663.7,1267.031 663.045,1267.031C662.293,1267.031 661.622,1267.089 661.031,1267.204C660.44,1267.32 660.008,1267.493 659.734,1267.726C659.46,1267.958 659.323,1268.301 659.323,1268.756L659.323,1271.462L654.796,1271.462L654.796,1264.005L659.323,1264.005Z" style="fill-rule:nonzero;"/>
                <path d="M686.228,1271.462L686.228,1270.653C685.605,1270.941 684.786,1271.168 683.771,1271.334C682.756,1271.501 681.685,1271.584 680.557,1271.584C679.408,1271.584 678.377,1271.504 677.464,1271.345C676.551,1271.185 675.89,1270.961 675.482,1270.673C675.074,1270.385 674.87,1269.987 674.87,1269.478L674.87,1266.06L679.397,1266.06L679.397,1268.542C679.397,1269.302 679.48,1269.767 679.647,1269.938C679.813,1270.109 680.117,1270.245 680.557,1270.345C680.998,1270.445 681.556,1270.495 682.233,1270.495C683.006,1270.495 683.699,1270.428 684.311,1270.294C684.923,1270.16 685.342,1269.994 685.568,1269.796C685.793,1269.597 685.906,1269.112 685.906,1268.339L685.906,1266.06L690.433,1266.06L690.433,1271.462L686.228,1271.462Z" style="fill-rule:nonzero;"/>
                <path d="M694.783,1266.06L698.956,1266.06L698.956,1266.797C700.449,1266.224 702.226,1265.938 704.288,1265.938C705.384,1265.938 706.334,1266.009 707.14,1266.151C707.946,1266.294 708.606,1266.509 709.122,1266.797C709.873,1266.509 710.684,1266.294 711.554,1266.151C712.424,1266.009 713.353,1265.938 714.342,1265.938C715.598,1265.938 716.661,1266.018 717.531,1266.179C718.401,1266.341 719.051,1266.577 719.481,1266.889C719.792,1267.12 719.948,1267.493 719.948,1268.008L719.948,1271.462L715.421,1271.462L715.421,1268.374C715.421,1267.838 715.265,1267.493 714.954,1267.337C714.535,1267.133 713.89,1267.031 713.02,1267.031C712.387,1267.031 711.791,1267.092 711.232,1267.215C710.674,1267.337 710.271,1267.515 710.024,1267.751C709.777,1267.987 709.653,1268.359 709.653,1268.868L709.653,1271.462L705.126,1271.462L705.126,1268.501C705.126,1267.976 705.046,1267.637 704.884,1267.484C704.723,1267.332 704.474,1267.218 704.135,1267.143C703.797,1267.069 703.338,1267.031 702.758,1267.031C702.06,1267.031 701.431,1267.091 700.873,1267.209C700.314,1267.328 699.914,1267.499 699.673,1267.723C699.431,1267.947 699.31,1268.318 699.31,1268.837L699.31,1271.462L694.783,1271.462L694.783,1266.06Z" style="fill-rule:nonzero;"/>
                <path d="M727.842,1267.708L723.734,1267.474C724.196,1266.952 724.991,1266.565 726.119,1266.314C727.246,1266.063 728.922,1265.938 731.145,1265.938C733.164,1265.938 734.668,1266.013 735.656,1266.164C736.644,1266.315 737.34,1266.507 737.742,1266.739C738.145,1266.971 738.347,1267.398 738.347,1268.018L738.298,1269.686C738.298,1270.161 738.371,1270.511 738.516,1270.737C738.661,1270.962 738.932,1271.204 739.329,1271.462L734.851,1271.462C734.732,1271.367 734.587,1271.226 734.416,1271.039C734.34,1270.955 734.287,1270.899 734.254,1270.872C733.481,1271.109 732.654,1271.287 731.773,1271.406C730.893,1271.524 729.953,1271.584 728.954,1271.584C727.193,1271.584 725.804,1271.433 724.789,1271.131C723.774,1270.829 723.267,1270.448 723.267,1269.987C723.267,1269.681 723.498,1269.409 723.96,1269.17C724.422,1268.931 725.069,1268.748 725.901,1268.621C726.733,1268.494 727.934,1268.383 729.502,1268.288C731.618,1268.162 733.084,1268.045 733.9,1267.937L733.9,1267.794C733.9,1267.52 733.685,1267.324 733.256,1267.207C732.826,1267.09 732.015,1267.031 730.823,1267.031C730.017,1267.031 729.389,1267.081 728.938,1267.181C728.487,1267.281 728.122,1267.457 727.842,1267.708ZM733.9,1268.868C733.32,1268.929 732.402,1269.001 731.145,1269.086C729.888,1269.171 729.067,1269.254 728.68,1269.335C728.089,1269.468 727.794,1269.636 727.794,1269.839C727.794,1270.039 728.03,1270.212 728.503,1270.358C728.975,1270.504 729.577,1270.577 730.307,1270.577C731.124,1270.577 731.902,1270.492 732.643,1270.322C733.191,1270.193 733.551,1270.036 733.723,1269.849C733.841,1269.727 733.9,1269.495 733.9,1269.152L733.9,1268.868Z" style="fill-rule:nonzero;"/>
                <path d="M758.372,1271.462L753.845,1271.462L753.845,1268.705C753.845,1268.122 753.749,1267.744 753.555,1267.573C753.362,1267.402 753.048,1267.269 752.613,1267.174C752.178,1267.079 751.654,1267.031 751.042,1267.031C750.258,1267.031 749.554,1267.099 748.931,1267.235C748.308,1267.37 747.882,1267.55 747.651,1267.774C747.42,1267.998 747.304,1268.411 747.304,1269.015L747.304,1271.462L742.777,1271.462L742.777,1266.06L746.982,1266.06L746.982,1266.853C748.475,1266.243 750.355,1265.938 752.621,1265.938C753.62,1265.938 754.533,1265.995 755.36,1266.108C756.187,1266.222 756.812,1266.367 757.237,1266.543C757.661,1266.719 757.956,1266.92 758.123,1267.143C758.289,1267.367 758.372,1267.688 758.372,1268.105L758.372,1271.462Z" style="fill-rule:nonzero;"/>
                <path d="M771.954,1265.058L771.954,1264.005L774.854,1264.005L774.854,1265.058L771.954,1265.058ZM771.954,1271.462L771.954,1266.06L774.854,1266.06L774.854,1271.462L771.954,1271.462Z" style="fill-rule:nonzero;"/>
                <path d="M779.268,1271.462L779.268,1266.06L781.878,1266.06L781.878,1266.828C783.135,1266.235 784.95,1265.938 787.323,1265.938C788.355,1265.938 789.302,1265.996 790.167,1266.113C791.032,1266.23 791.679,1266.384 792.108,1266.574C792.538,1266.764 792.839,1266.989 793.011,1267.25C793.118,1267.42 793.172,1267.716 793.172,1268.14L793.172,1271.462L790.272,1271.462L790.272,1268.176C790.272,1267.803 790.159,1267.524 789.933,1267.339C789.708,1267.154 789.308,1267.007 788.733,1266.897C788.159,1266.786 787.485,1266.731 786.711,1266.731C785.476,1266.731 784.41,1266.855 783.513,1267.103C782.616,1267.35 782.168,1267.82 782.168,1268.512L782.168,1271.462L779.268,1271.462Z" style="fill-rule:nonzero;"/>
                <path d="M803.95,1270.643L804.369,1271.451C803.552,1271.506 802.822,1271.533 802.178,1271.533C801.125,1271.533 800.309,1271.48 799.729,1271.375C799.149,1271.27 798.741,1271.132 798.504,1270.961C798.268,1270.789 798.15,1270.429 798.15,1269.88L798.15,1266.772L796.023,1266.772L796.023,1266.06L798.15,1266.06L798.15,1264.722L801.034,1264.173L801.034,1266.06L803.95,1266.06L803.95,1266.772L801.034,1266.772L801.034,1269.931C801.034,1270.192 801.085,1270.36 801.187,1270.434C801.289,1270.509 801.455,1270.568 801.686,1270.612C801.917,1270.656 802.247,1270.678 802.677,1270.678C802.999,1270.678 803.424,1270.666 803.95,1270.643Z" style="fill-rule:nonzero;"/>
                <path d="M818.498,1269.722L821.494,1269.839C821.022,1270.392 820.147,1270.821 818.868,1271.126C817.59,1271.431 815.958,1271.584 813.971,1271.584C811.468,1271.584 809.484,1271.34 808.018,1270.854C806.552,1270.367 805.819,1269.685 805.819,1268.807C805.819,1267.898 806.56,1267.192 808.042,1266.691C809.524,1266.189 811.447,1265.938 813.81,1265.938C816.097,1265.938 817.966,1266.184 819.416,1266.675C820.866,1267.167 821.591,1267.859 821.591,1268.751C821.591,1268.805 821.586,1268.886 821.575,1268.995L808.815,1268.995C808.923,1269.588 809.454,1270.042 810.41,1270.358C811.366,1270.673 812.558,1270.831 813.987,1270.831C815.05,1270.831 815.958,1270.743 816.71,1270.566C817.461,1270.39 818.057,1270.109 818.498,1269.722ZM808.976,1268.242L818.53,1268.242C818.401,1267.788 818.036,1267.447 817.435,1267.22C816.511,1266.867 815.313,1266.691 813.842,1266.691C812.51,1266.691 811.39,1266.831 810.483,1267.113C809.575,1267.394 809.073,1267.771 808.976,1268.242Z" style="fill-rule:nonzero;"/>
                <rect x="825.071" y="1264.005" width="2.9" height="7.456" style="fill-rule:nonzero;"/>
                <rect x="832.401" y="1264.005" width="2.9" height="7.456" style="fill-rule:nonzero;"/>
                <path d="M839.812,1265.058L839.812,1264.005L842.712,1264.005L842.712,1265.058L839.812,1265.058ZM839.812,1271.462L839.812,1266.06L842.712,1266.06L842.712,1271.462L839.812,1271.462Z" style="fill-rule:nonzero;"/>
                <path d="M846.595,1271.909L849.414,1272.041C849.533,1272.316 849.86,1272.516 850.397,1272.642C851.117,1272.811 852.1,1272.896 853.346,1272.896C854.688,1272.896 855.725,1272.811 856.455,1272.642C857.185,1272.472 857.679,1272.235 857.937,1271.929C858.087,1271.743 858.157,1271.351 858.147,1270.755C856.879,1271.226 855.3,1271.462 853.41,1271.462C851.058,1271.462 849.237,1271.194 847.948,1270.658C846.66,1270.122 846.015,1269.48 846.015,1268.73C846.015,1268.215 846.31,1267.739 846.901,1267.304C847.492,1266.868 848.348,1266.531 849.471,1266.294C850.593,1266.057 851.912,1265.938 853.426,1265.938C855.445,1265.938 857.11,1266.196 858.42,1266.711L858.42,1266.06L861.095,1266.06L861.095,1270.729C861.095,1271.57 860.824,1272.166 860.281,1272.517C859.739,1272.868 858.88,1273.145 857.703,1273.349C856.527,1273.552 855.08,1273.654 853.362,1273.654C851.321,1273.654 849.672,1273.509 848.416,1273.219C847.159,1272.929 846.552,1272.492 846.595,1271.909ZM848.996,1268.664C848.996,1269.373 849.441,1269.89 850.333,1270.215C851.224,1270.541 852.341,1270.704 853.684,1270.704C855.016,1270.704 856.133,1270.542 857.035,1270.218C857.937,1269.894 858.388,1269.386 858.388,1268.695C858.388,1268.033 857.924,1267.535 856.995,1267.199C856.066,1266.864 854.946,1266.696 853.636,1266.696C852.347,1266.696 851.251,1266.861 850.349,1267.192C849.447,1267.522 848.996,1268.013 848.996,1268.664Z" style="fill-rule:nonzero;"/>
                <path d="M877.19,1269.722L880.186,1269.839C879.714,1270.392 878.838,1270.821 877.56,1271.126C876.282,1271.431 874.649,1271.584 872.662,1271.584C870.16,1271.584 868.176,1271.34 866.709,1270.854C865.243,1270.367 864.51,1269.685 864.51,1268.807C864.51,1267.898 865.251,1267.192 866.734,1266.691C868.216,1266.189 870.138,1265.938 872.501,1265.938C874.789,1265.938 876.658,1266.184 878.108,1266.675C879.558,1267.167 880.283,1267.859 880.283,1268.751C880.283,1268.805 880.277,1268.886 880.267,1268.995L867.507,1268.995C867.614,1269.588 868.146,1270.042 869.102,1270.358C870.058,1270.673 871.25,1270.831 872.678,1270.831C873.742,1270.831 874.649,1270.743 875.401,1270.566C876.153,1270.39 876.749,1270.109 877.19,1269.722ZM867.668,1268.242L877.222,1268.242C877.093,1267.788 876.728,1267.447 876.126,1267.22C875.203,1266.867 874.005,1266.691 872.533,1266.691C871.202,1266.691 870.082,1266.831 869.174,1267.113C868.267,1267.394 867.765,1267.771 867.668,1268.242Z" style="fill-rule:nonzero;"/>
                <path d="M883.827,1271.462L883.827,1266.06L886.437,1266.06L886.437,1266.828C887.694,1266.235 889.509,1265.938 891.883,1265.938C892.914,1265.938 893.861,1265.996 894.726,1266.113C895.591,1266.23 896.238,1266.384 896.667,1266.574C897.097,1266.764 897.398,1266.989 897.57,1267.25C897.677,1267.42 897.731,1267.716 897.731,1268.14L897.731,1271.462L894.831,1271.462L894.831,1268.176C894.831,1267.803 894.718,1267.524 894.493,1267.339C894.267,1267.154 893.867,1267.007 893.292,1266.897C892.718,1266.786 892.044,1266.731 891.27,1266.731C890.035,1266.731 888.969,1266.855 888.072,1267.103C887.176,1267.35 886.727,1267.82 886.727,1268.512L886.727,1271.462L883.827,1271.462Z" style="fill-rule:nonzero;"/>
                <path d="M913.342,1269.483L916.194,1269.6C915.882,1270.22 915.085,1270.706 913.801,1271.057C912.518,1271.408 910.942,1271.584 909.073,1271.584C906.731,1271.584 904.849,1271.342 903.426,1270.859C902.003,1270.376 901.291,1269.683 901.291,1268.781C901.291,1268.198 901.597,1267.688 902.21,1267.25C902.822,1266.813 903.754,1266.485 905.005,1266.266C906.256,1266.047 907.617,1265.938 909.089,1265.938C910.947,1265.938 912.467,1266.086 913.648,1266.383C914.83,1266.68 915.587,1267.101 915.92,1267.647L913.1,1267.784C912.832,1267.421 912.357,1267.148 911.675,1266.965C910.993,1266.782 910.168,1266.691 909.202,1266.691C907.741,1266.691 906.554,1266.856 905.641,1267.187C904.728,1267.517 904.272,1268.04 904.272,1268.756C904.272,1269.481 904.712,1270.009 905.593,1270.337C906.474,1270.666 907.623,1270.831 909.041,1270.831C910.179,1270.831 911.13,1270.721 911.892,1270.5C912.655,1270.28 913.138,1269.941 913.342,1269.483Z" style="fill-rule:nonzero;"/>
                <path d="M930.387,1269.722L933.384,1269.839C932.911,1270.392 932.036,1270.821 930.758,1271.126C929.48,1271.431 927.847,1271.584 925.86,1271.584C923.358,1271.584 921.373,1271.34 919.907,1270.854C918.441,1270.367 917.708,1269.685 917.708,1268.807C917.708,1267.898 918.449,1267.192 919.931,1266.691C921.414,1266.189 923.336,1265.938 925.699,1265.938C927.987,1265.938 929.856,1266.184 931.306,1266.675C932.756,1267.167 933.481,1267.859 933.481,1268.751C933.481,1268.805 933.475,1268.886 933.465,1268.995L920.705,1268.995C920.812,1269.588 921.344,1270.042 922.3,1270.358C923.256,1270.673 924.448,1270.831 925.876,1270.831C926.94,1270.831 927.847,1270.743 928.599,1270.566C929.351,1270.39 929.947,1270.109 930.387,1269.722ZM920.866,1268.242L930.42,1268.242C930.291,1267.788 929.926,1267.447 929.324,1267.22C928.4,1266.867 927.203,1266.691 925.731,1266.691C924.4,1266.691 923.28,1266.831 922.372,1267.113C921.465,1267.394 920.963,1267.771 920.866,1268.242Z" style="fill-rule:nonzero;"/>
                <path d="M941.153,1268.813L941.153,1265.989L937.75,1265.989L937.75,1265.496L946.334,1265.496L946.334,1265.989L942.905,1265.989L942.905,1268.813L941.153,1268.813ZM947.507,1268.813L947.507,1265.496L950.084,1265.496L952.74,1268.145L955.304,1265.496L957.831,1265.496L957.831,1268.813L956.232,1268.813L956.232,1266.029L953.526,1268.813L951.94,1268.813L949.118,1265.989L949.118,1268.813L947.507,1268.813Z" style="fill-rule:nonzero;"/>
            </g>
            <g transform="matrix(2.991718,0,0,1.902867,-1772.232106,-1736.513206)">
                <rect x="932" y="1018" width="29" height="68" style="fill:rgb(208,10,222);"/>
            </g>
            <g transform="matrix(1.875289,0,0,1.875289,-514.18657,-869.810619)">
                <path d="M363.135,569.567L387.435,569.567L405.885,619.067L406.185,619.067L423.285,569.567L445.935,569.567L417.135,642.467L393.285,642.467L363.135,569.567Z" style="fill-rule:nonzero;"/>
                <path d="M454.185,569.567L476.685,569.567L476.685,581.267L476.985,581.267C479.385,576.767 482.235,573.392 485.535,571.142C488.835,568.892 492.985,567.767 497.985,567.767C499.285,567.767 500.585,567.817 501.885,567.917C503.185,568.017 504.385,568.217 505.485,568.517L505.485,589.067C503.885,588.567 502.31,588.192 500.76,587.942C499.21,587.692 497.585,587.567 495.885,587.567C491.585,587.567 488.185,588.167 485.685,589.367C483.185,590.567 481.26,592.242 479.91,594.392C478.56,596.542 477.685,599.117 477.285,602.117C476.885,605.117 476.685,608.417 476.685,612.017L476.685,642.467L454.185,642.467L454.185,569.567Z" style="fill-rule:nonzero;"/>
                <path d="M581.535,629.867C577.935,634.467 573.385,638.017 567.885,640.517C562.385,643.017 556.685,644.267 550.785,644.267C545.185,644.267 539.91,643.367 534.96,641.567C530.01,639.767 525.71,637.192 522.06,633.842C518.41,630.492 515.535,626.467 513.435,621.767C511.335,617.067 510.285,611.817 510.285,606.017C510.285,600.217 511.335,594.967 513.435,590.267C515.535,585.567 518.41,581.542 522.06,578.192C525.71,574.842 530.01,572.267 534.96,570.467C539.91,568.667 545.185,567.767 550.785,567.767C555.985,567.767 560.71,568.667 564.96,570.467C569.21,572.267 572.81,574.842 575.76,578.192C578.71,581.542 580.985,585.567 582.585,590.267C584.185,594.967 584.985,600.217 584.985,606.017L584.985,613.067L532.785,613.067C533.685,617.367 535.635,620.792 538.635,623.342C541.635,625.892 545.335,627.167 549.735,627.167C553.435,627.167 556.56,626.342 559.11,624.692C561.66,623.042 563.885,620.917 565.785,618.317L581.535,629.867ZM562.485,597.767C562.585,593.967 561.335,590.717 558.735,588.017C556.135,585.317 552.785,583.967 548.685,583.967C546.185,583.967 543.985,584.367 542.085,585.167C540.185,585.967 538.56,586.992 537.21,588.242C535.86,589.492 534.81,590.942 534.06,592.592C533.31,594.242 532.885,595.967 532.785,597.767L562.485,597.767Z" style="fill-rule:nonzero;"/>
                <path d="M667.635,629.867C664.035,634.467 659.485,638.017 653.985,640.517C648.485,643.017 642.785,644.267 636.885,644.267C631.285,644.267 626.01,643.367 621.06,641.567C616.11,639.767 611.81,637.192 608.16,633.842C604.51,630.492 601.635,626.467 599.535,621.767C597.435,617.067 596.385,611.817 596.385,606.017C596.385,600.217 597.435,594.967 599.535,590.267C601.635,585.567 604.51,581.542 608.16,578.192C611.81,574.842 616.11,572.267 621.06,570.467C626.01,568.667 631.285,567.767 636.885,567.767C642.085,567.767 646.81,568.667 651.06,570.467C655.31,572.267 658.91,574.842 661.86,578.192C664.81,581.542 667.085,585.567 668.685,590.267C670.285,594.967 671.085,600.217 671.085,606.017L671.085,613.067L618.885,613.067C619.785,617.367 621.735,620.792 624.735,623.342C627.735,625.892 631.435,627.167 635.835,627.167C639.535,627.167 642.66,626.342 645.21,624.692C647.76,623.042 649.985,620.917 651.885,618.317L667.635,629.867ZM648.585,597.767C648.685,593.967 647.435,590.717 644.835,588.017C642.235,585.317 638.885,583.967 634.785,583.967C632.285,583.967 630.085,584.367 628.185,585.167C626.285,585.967 624.66,586.992 623.31,588.242C621.96,589.492 620.91,590.942 620.16,592.592C619.41,594.242 618.985,595.967 618.885,597.767L648.585,597.767Z" style="fill-rule:nonzero;"/>
                <rect x="685.035" y="529.067" width="22.5" height="113.4" style="fill-rule:nonzero;"/>
                <path d="M721.035,606.017C721.035,600.217 722.085,594.967 724.185,590.267C726.285,585.567 729.16,581.542 732.81,578.192C736.46,574.842 740.76,572.267 745.71,570.467C750.66,568.667 755.935,567.767 761.535,567.767C767.135,567.767 772.41,568.667 777.36,570.467C782.31,572.267 786.61,574.842 790.26,578.192C793.91,581.542 796.785,585.567 798.885,590.267C800.985,594.967 802.035,600.217 802.035,606.017C802.035,611.817 800.985,617.067 798.885,621.767C796.785,626.467 793.91,630.492 790.26,633.842C786.61,637.192 782.31,639.767 777.36,641.567C772.41,643.367 767.135,644.267 761.535,644.267C755.935,644.267 750.66,643.367 745.71,641.567C740.76,639.767 736.46,637.192 732.81,633.842C729.16,630.492 726.285,626.467 724.185,621.767C722.085,617.067 721.035,611.817 721.035,606.017ZM743.535,606.017C743.535,611.517 745.11,615.967 748.26,619.367C751.41,622.767 755.835,624.467 761.535,624.467C767.235,624.467 771.66,622.767 774.81,619.367C777.96,615.967 779.535,611.517 779.535,606.017C779.535,600.517 777.96,596.067 774.81,592.667C771.66,589.267 767.235,587.567 761.535,587.567C755.835,587.567 751.41,589.267 748.26,592.667C745.11,596.067 743.535,600.517 743.535,606.017Z" style="fill-rule:nonzero;"/>
            </g>
        </g>
    </g>
</svg>
