<?xml version="1.0" encoding="UTF-8" standalone="no"?><!DOCTYPE svg PUBLIC "-//W3C//DTD SVG 1.1//EN" "http://www.w3.org/Graphics/SVG/1.1/DTD/svg11.dtd"><svg width="100%" height="100%" viewBox="0 0 1102 330" version="1.1" xmlns="http://www.w3.org/2000/svg" xmlns:xlink="http://www.w3.org/1999/xlink" xml:space="preserve" xmlns:serif="http://www.serif.com/" style="fill-rule:evenodd;clip-rule:evenodd;stroke-linejoin:round;stroke-miterlimit:2;"><g><g><path d="M55.716,307.762c-2.544,2.162 -4.992,3.688 -7.344,4.578c-2.353,0.89 -4.877,1.335 -7.573,1.335c-4.451,0 -7.872,-1.087 -10.263,-3.262c-2.391,-2.175 -3.586,-4.954 -3.586,-8.336c0,-1.984 0.451,-3.796 1.354,-5.437c0.903,-1.641 2.086,-2.957 3.548,-3.949c1.463,-0.992 3.109,-1.742 4.941,-2.251c1.348,-0.356 3.383,-0.699 6.104,-1.03c5.545,-0.661 9.627,-1.45 12.247,-2.365c0.025,-0.941 0.038,-1.539 0.038,-1.793c0,-2.798 -0.649,-4.769 -1.946,-5.914c-1.755,-1.552 -4.362,-2.327 -7.821,-2.327c-3.23,0 -5.615,0.566 -7.154,1.698c-1.539,1.132 -2.677,3.135 -3.415,6.009l-6.715,-0.916c0.61,-2.874 1.615,-5.195 3.014,-6.963c1.399,-1.768 3.421,-3.129 6.066,-4.082c2.645,-0.954 5.71,-1.431 9.195,-1.431c3.459,0 6.27,0.407 8.432,1.221c2.162,0.814 3.752,1.838 4.769,3.071c1.017,1.234 1.73,2.792 2.137,4.674c0.229,1.17 0.343,3.281 0.343,6.333l0,9.157c0,6.384 0.146,10.422 0.439,12.114c0.293,1.691 0.871,3.313 1.736,4.864l-7.173,0c-0.712,-1.424 -1.17,-3.09 -1.374,-4.998Zm-0.572,-15.337c-2.493,1.017 -6.232,1.882 -11.217,2.594c-2.823,0.407 -4.82,0.865 -5.99,1.374c-1.17,0.509 -2.073,1.253 -2.709,2.232c-0.636,0.979 -0.954,2.067 -0.954,3.262c0,1.831 0.693,3.357 2.079,4.578c1.386,1.221 3.415,1.831 6.085,1.831c2.645,0 4.998,-0.579 7.058,-1.736c2.06,-1.157 3.574,-2.741 4.54,-4.75c0.738,-1.552 1.106,-3.841 1.106,-6.868l0,-2.518Z" style="fill-rule:nonzero;"/><path d="M72.656,312.76l0,-40.518l6.181,0l0,6.143c1.577,-2.874 3.033,-4.769 4.369,-5.685c1.335,-0.916 2.804,-1.374 4.407,-1.374c2.315,0 4.667,0.738 7.058,2.213l-2.365,6.372c-1.679,-0.992 -3.357,-1.488 -5.036,-1.488c-1.501,0 -2.849,0.451 -4.044,1.354c-1.195,0.903 -2.048,2.156 -2.556,3.758c-0.763,2.442 -1.145,5.112 -1.145,8.012l0,21.213l-6.868,0Z" style="fill-rule:nonzero;"/><path d="M113.747,306.618l0.992,6.066c-1.933,0.407 -3.663,0.61 -5.189,0.61c-2.493,0 -4.426,-0.394 -5.799,-1.183c-1.374,-0.788 -2.34,-1.825 -2.9,-3.109c-0.56,-1.284 -0.839,-3.987 -0.839,-8.107l0,-23.311l-5.036,0l0,-5.341l5.036,0l0,-10.034l6.829,-4.121l0,14.155l6.906,0l0,5.341l-6.906,0l0,23.693c0,1.959 0.121,3.218 0.362,3.777c0.242,0.56 0.636,1.005 1.183,1.335c0.547,0.331 1.329,0.496 2.346,0.496c0.763,0 1.768,-0.089 3.014,-0.267Z" style="fill-rule:nonzero;"/><path d="M120.5,264.726l0,-7.898l6.868,0l0,7.898l-6.868,0Zm0,48.034l0,-40.518l6.868,0l0,40.518l-6.868,0Z" style="fill-rule:nonzero;"/><path d="M139.653,312.76l0,-35.215l-6.104,0l0,-5.303l6.104,0l0,-3.93c0,-4.019 0.865,-7.096 2.594,-9.233c1.73,-2.137 4.464,-3.205 8.203,-3.205c2.518,0 4.845,0.293 6.982,0.878l-1.068,5.799c-1.348,-0.229 -2.582,-0.343 -3.701,-0.343c-2.365,0 -3.981,0.471 -4.845,1.412c-0.865,0.941 -1.297,2.938 -1.297,5.99l0,2.633l7.859,0l0,5.303l-7.859,0l0,35.215l-6.868,0Zm19.916,-48.034l0,-7.898l6.868,0l0,7.898l-6.868,0Zm0,48.034l0,-40.518l6.868,0l0,40.518l-6.868,0Z" style="fill-rule:nonzero;"/><path d="M203.33,297.919l6.753,0.878c-0.738,4.655 -2.626,8.298 -5.666,10.931c-3.04,2.633 -6.772,3.949 -11.198,3.949c-5.545,0 -10.002,-1.812 -13.373,-5.437c-3.37,-3.625 -5.055,-8.82 -5.055,-15.585c0,-4.375 0.725,-8.203 2.175,-11.484c1.45,-3.281 3.656,-5.742 6.62,-7.383c2.963,-1.641 6.187,-2.461 9.672,-2.461c4.4,0 7.999,1.113 10.797,3.338c2.798,2.226 4.591,5.386 5.38,9.481l-6.677,1.03c-0.636,-2.722 -1.761,-4.769 -3.377,-6.143c-1.615,-1.374 -3.567,-2.06 -5.856,-2.06c-3.459,0 -6.27,1.24 -8.432,3.72c-2.162,2.48 -3.243,6.403 -3.243,11.77c0,5.443 1.043,9.398 3.129,11.866c2.086,2.467 4.807,3.701 8.165,3.701c2.696,0 4.947,-0.827 6.753,-2.48c1.806,-1.653 2.95,-4.197 3.434,-7.631Z" style="fill-rule:nonzero;"/><path d="M215.997,264.726l0,-7.898l6.868,0l0,7.898l-6.868,0Zm0,48.034l0,-40.518l6.868,0l0,40.518l-6.868,0Z" style="fill-rule:nonzero;"/><path d="M259.758,307.762c-2.544,2.162 -4.992,3.688 -7.344,4.578c-2.353,0.89 -4.877,1.335 -7.573,1.335c-4.451,0 -7.872,-1.087 -10.263,-3.262c-2.391,-2.175 -3.586,-4.954 -3.586,-8.336c0,-1.984 0.451,-3.796 1.354,-5.437c0.903,-1.641 2.086,-2.957 3.548,-3.949c1.463,-0.992 3.109,-1.742 4.941,-2.251c1.348,-0.356 3.383,-0.699 6.104,-1.03c5.545,-0.661 9.627,-1.45 12.247,-2.365c0.025,-0.941 0.038,-1.539 0.038,-1.793c0,-2.798 -0.649,-4.769 -1.946,-5.914c-1.755,-1.552 -4.362,-2.327 -7.821,-2.327c-3.23,0 -5.615,0.566 -7.154,1.698c-1.539,1.132 -2.677,3.135 -3.415,6.009l-6.715,-0.916c0.61,-2.874 1.615,-5.195 3.014,-6.963c1.399,-1.768 3.421,-3.129 6.066,-4.082c2.645,-0.954 5.71,-1.431 9.195,-1.431c3.459,0 6.27,0.407 8.432,1.221c2.162,0.814 3.752,1.838 4.769,3.071c1.017,1.234 1.73,2.792 2.137,4.674c0.229,1.17 0.343,3.281 0.343,6.333l0,9.157c0,6.384 0.146,10.422 0.439,12.114c0.293,1.691 0.871,3.313 1.736,4.864l-7.173,0c-0.712,-1.424 -1.17,-3.09 -1.374,-4.998Zm-0.572,-15.337c-2.493,1.017 -6.232,1.882 -11.217,2.594c-2.823,0.407 -4.82,0.865 -5.99,1.374c-1.17,0.509 -2.073,1.253 -2.709,2.232c-0.636,0.979 -0.954,2.067 -0.954,3.262c0,1.831 0.693,3.357 2.079,4.578c1.386,1.221 3.415,1.831 6.085,1.831c2.645,0 4.998,-0.579 7.058,-1.736c2.06,-1.157 3.574,-2.741 4.54,-4.75c0.738,-1.552 1.106,-3.841 1.106,-6.868l0,-2.518Z" style="fill-rule:nonzero;"/><rect x="276.622" y="256.828" width="6.868" height="55.932" style="fill-rule:nonzero;"/><path d="M330.264,303.718l0,-15.337l-15.223,0l0,-6.41l15.223,0l0,-15.223l6.486,0l0,15.223l15.223,0l0,6.41l-15.223,0l0,15.337l-6.486,0Z" style="fill-rule:nonzero;"/><path d="M394.323,256.828l0,20.564c3.459,-4.044 7.592,-6.066 12.4,-6.066c2.467,0 4.693,0.458 6.677,1.374c1.984,0.916 3.478,2.086 4.483,3.51c1.005,1.424 1.691,3.001 2.06,4.731c0.369,1.73 0.553,4.413 0.553,8.05l0,23.769l-10.721,0l0,-21.404c0,-4.248 -0.203,-6.944 -0.61,-8.088c-0.407,-1.145 -1.126,-2.054 -2.156,-2.728c-1.03,-0.674 -2.321,-1.011 -3.873,-1.011c-1.78,0 -3.37,0.432 -4.769,1.297c-1.399,0.865 -2.423,2.168 -3.071,3.911c-0.649,1.742 -0.973,4.318 -0.973,7.726l0,20.297l-10.721,0l0,-55.932l10.721,0Z" style="fill-rule:nonzero;"/><path d="M458.038,312.76l0,-6.066c-1.475,2.162 -3.415,3.866 -5.818,5.112c-2.404,1.246 -4.941,1.869 -7.611,1.869c-2.722,0 -5.163,-0.598 -7.325,-1.793c-2.162,-1.195 -3.726,-2.874 -4.693,-5.036c-0.967,-2.162 -1.45,-5.151 -1.45,-8.966l0,-25.639l10.721,0l0,18.619c0,5.697 0.197,9.188 0.591,10.473c0.394,1.284 1.113,2.302 2.156,3.052c1.043,0.75 2.365,1.126 3.968,1.126c1.831,0 3.472,-0.502 4.922,-1.507c1.45,-1.005 2.442,-2.251 2.976,-3.739c0.534,-1.488 0.801,-5.132 0.801,-10.931l0,-17.092l10.721,0l0,40.518l-9.958,0Z" style="fill-rule:nonzero;"/><path d="M478.298,272.242l9.882,0l0,5.532c3.535,-4.299 7.745,-6.448 12.629,-6.448c2.594,0 4.845,0.534 6.753,1.602c1.908,1.068 3.472,2.683 4.693,4.845c1.78,-2.162 3.701,-3.777 5.761,-4.845c2.06,-1.068 4.26,-1.602 6.6,-1.602c2.976,0 5.494,0.604 7.554,1.812c2.06,1.208 3.599,2.982 4.616,5.322c0.738,1.73 1.106,4.527 1.106,8.394l0,25.906l-10.721,0l0,-23.159c0,-4.019 -0.369,-6.613 -1.106,-7.783c-0.992,-1.526 -2.518,-2.289 -4.578,-2.289c-1.501,0 -2.912,0.458 -4.235,1.374c-1.323,0.916 -2.276,2.257 -2.861,4.025c-0.585,1.768 -0.878,4.559 -0.878,8.375l0,19.458l-10.721,0l0,-22.205c0,-3.942 -0.191,-6.486 -0.572,-7.631c-0.382,-1.145 -0.973,-1.997 -1.774,-2.556c-0.801,-0.56 -1.889,-0.839 -3.262,-0.839c-1.653,0 -3.141,0.445 -4.464,1.335c-1.323,0.89 -2.27,2.175 -2.842,3.853c-0.572,1.679 -0.858,4.464 -0.858,8.355l0,19.687l-10.721,0l0,-40.518Z" style="fill-rule:nonzero;"/><path d="M556.587,284.603l-9.729,-1.755c1.094,-3.917 2.976,-6.817 5.647,-8.699c2.671,-1.882 6.639,-2.823 11.904,-2.823c4.782,0 8.343,0.566 10.683,1.698c2.34,1.132 3.987,2.569 4.941,4.311c0.954,1.742 1.431,4.941 1.431,9.595l-0.114,12.514c0,3.561 0.172,6.187 0.515,7.879c0.343,1.691 0.986,3.504 1.927,5.437l-10.606,0c-0.28,-0.712 -0.623,-1.768 -1.03,-3.167c-0.178,-0.636 -0.305,-1.056 -0.382,-1.259c-1.831,1.78 -3.79,3.116 -5.876,4.006c-2.086,0.89 -4.311,1.335 -6.677,1.335c-4.171,0 -7.459,-1.132 -9.863,-3.396c-2.404,-2.264 -3.605,-5.125 -3.605,-8.584c0,-2.289 0.547,-4.33 1.641,-6.124c1.094,-1.793 2.626,-3.167 4.597,-4.121c1.971,-0.954 4.814,-1.787 8.527,-2.499c5.011,-0.941 8.483,-1.819 10.416,-2.633l0,-1.068c0,-2.06 -0.509,-3.529 -1.526,-4.407c-1.017,-0.878 -2.938,-1.316 -5.761,-1.316c-1.908,0 -3.396,0.375 -4.464,1.126c-1.068,0.75 -1.933,2.067 -2.594,3.949Zm14.345,8.699c-1.374,0.458 -3.548,1.005 -6.524,1.641c-2.976,0.636 -4.922,1.259 -5.837,1.869c-1.399,0.992 -2.098,2.251 -2.098,3.777c0,1.501 0.56,2.798 1.679,3.892c1.119,1.094 2.544,1.641 4.273,1.641c1.933,0 3.777,-0.636 5.532,-1.908c1.297,-0.967 2.149,-2.149 2.556,-3.548c0.28,-0.916 0.42,-2.658 0.42,-5.227l0,-2.137Z" style="fill-rule:nonzero;"/><path d="M628.887,312.76l-10.721,0l0,-20.679c0,-4.375 -0.229,-7.205 -0.687,-8.489c-0.458,-1.284 -1.202,-2.283 -2.232,-2.995c-1.03,-0.712 -2.27,-1.068 -3.72,-1.068c-1.857,0 -3.523,0.509 -4.998,1.526c-1.475,1.017 -2.486,2.365 -3.033,4.044c-0.547,1.679 -0.82,4.782 -0.82,9.309l0,18.352l-10.721,0l0,-40.518l9.958,0l0,5.952c3.535,-4.578 7.987,-6.868 13.353,-6.868c2.365,0 4.527,0.426 6.486,1.278c1.959,0.852 3.44,1.939 4.445,3.262c1.005,1.323 1.704,2.823 2.098,4.502c0.394,1.679 0.591,4.082 0.591,7.211l0,25.181Z" style="fill-rule:nonzero;"/><path d="M661.05,264.726l0,-7.898l6.868,0l0,7.898l-6.868,0Zm0,48.034l0,-40.518l6.868,0l0,40.518l-6.868,0Z" style="fill-rule:nonzero;"/><path d="M678.371,312.76l0,-40.518l6.181,0l0,5.761c2.976,-4.451 7.274,-6.677 12.896,-6.677c2.442,0 4.686,0.439 6.734,1.316c2.048,0.878 3.58,2.028 4.597,3.453c1.017,1.424 1.73,3.116 2.137,5.074c0.254,1.272 0.382,3.497 0.382,6.677l0,24.914l-6.868,0l0,-24.647c0,-2.798 -0.267,-4.89 -0.801,-6.276c-0.534,-1.386 -1.482,-2.493 -2.842,-3.319c-1.361,-0.827 -2.957,-1.24 -4.788,-1.24c-2.925,0 -5.449,0.928 -7.573,2.785c-2.124,1.857 -3.186,5.38 -3.186,10.568l0,22.129l-6.868,0Z" style="fill-rule:nonzero;"/><path d="M736.821,306.618l0.992,6.066c-1.933,0.407 -3.663,0.61 -5.189,0.61c-2.493,0 -4.426,-0.394 -5.799,-1.183c-1.374,-0.788 -2.34,-1.825 -2.9,-3.109c-0.56,-1.284 -0.839,-3.987 -0.839,-8.107l0,-23.311l-5.036,0l0,-5.341l5.036,0l0,-10.034l6.829,-4.121l0,14.155l6.906,0l0,5.341l-6.906,0l0,23.693c0,1.959 0.121,3.218 0.362,3.777c0.242,0.56 0.636,1.005 1.183,1.335c0.547,0.331 1.329,0.496 2.346,0.496c0.763,0 1.768,-0.089 3.014,-0.267Z" style="fill-rule:nonzero;"/><path d="M771.273,299.712l7.096,0.878c-1.119,4.146 -3.192,7.364 -6.219,9.653c-3.027,2.289 -6.893,3.434 -11.598,3.434c-5.926,0 -10.626,-1.825 -14.097,-5.475c-3.472,-3.65 -5.208,-8.769 -5.208,-15.357c0,-6.817 1.755,-12.107 5.265,-15.872c3.51,-3.764 8.063,-5.647 13.659,-5.647c5.418,0 9.843,1.844 13.277,5.532c3.434,3.688 5.151,8.877 5.151,15.566c0,0.407 -0.013,1.017 -0.038,1.831l-30.217,0c0.254,4.451 1.513,7.859 3.777,10.225c2.264,2.365 5.087,3.548 8.47,3.548c2.518,0 4.667,-0.661 6.448,-1.984c1.78,-1.323 3.192,-3.434 4.235,-6.333Zm-22.548,-11.102l22.625,0c-0.305,-3.408 -1.17,-5.965 -2.594,-7.669c-2.187,-2.645 -5.023,-3.968 -8.508,-3.968c-3.154,0 -5.806,1.056 -7.955,3.167c-2.149,2.111 -3.338,4.934 -3.567,8.47Z" style="fill-rule:nonzero;"/><rect x="786.84" y="256.828" width="6.868" height="55.932" style="fill-rule:nonzero;"/><rect x="804.199" y="256.828" width="6.868" height="55.932" style="fill-rule:nonzero;"/><path d="M821.75,264.726l0,-7.898l6.868,0l0,7.898l-6.868,0Zm0,48.034l0,-40.518l6.868,0l0,40.518l-6.868,0Z" style="fill-rule:nonzero;"/><path d="M837.812,316.118l6.677,0.992c0.28,2.06 1.056,3.561 2.327,4.502c1.704,1.272 4.031,1.908 6.982,1.908c3.179,0 5.634,-0.636 7.364,-1.908c1.73,-1.272 2.9,-3.052 3.51,-5.341c0.356,-1.399 0.521,-4.337 0.496,-8.813c-3.001,3.535 -6.74,5.303 -11.217,5.303c-5.57,0 -9.882,-2.009 -12.934,-6.028c-3.052,-4.019 -4.578,-8.839 -4.578,-14.46c0,-3.866 0.699,-7.433 2.098,-10.702c1.399,-3.268 3.427,-5.793 6.085,-7.573c2.658,-1.78 5.78,-2.671 9.367,-2.671c4.782,0 8.724,1.933 11.827,5.799l0,-4.884l6.333,0l0,35.024c0,6.308 -0.642,10.778 -1.927,13.411c-1.284,2.633 -3.319,4.712 -6.104,6.238c-2.785,1.526 -6.213,2.289 -10.282,2.289c-4.833,0 -8.737,-1.087 -11.713,-3.262c-2.976,-2.175 -4.413,-5.449 -4.311,-9.824Zm5.685,-24.342c0,5.316 1.056,9.195 3.167,11.637c2.111,2.442 4.756,3.663 7.936,3.663c3.154,0 5.799,-1.215 7.936,-3.644c2.137,-2.429 3.205,-6.238 3.205,-11.427c0,-4.96 -1.1,-8.699 -3.3,-11.217c-2.2,-2.518 -4.852,-3.777 -7.955,-3.777c-3.052,0 -5.647,1.24 -7.783,3.72c-2.137,2.48 -3.205,6.162 -3.205,11.045Z" style="fill-rule:nonzero;"/><path d="M910.264,299.712l7.096,0.878c-1.119,4.146 -3.192,7.364 -6.219,9.653c-3.027,2.289 -6.893,3.434 -11.598,3.434c-5.926,0 -10.626,-1.825 -14.097,-5.475c-3.472,-3.65 -5.208,-8.769 -5.208,-15.357c0,-6.817 1.755,-12.107 5.265,-15.872c3.51,-3.764 8.063,-5.647 13.659,-5.647c5.418,0 9.843,1.844 13.277,5.532c3.434,3.688 5.151,8.877 5.151,15.566c0,0.407 -0.013,1.017 -0.038,1.831l-30.217,0c0.254,4.451 1.513,7.859 3.777,10.225c2.264,2.365 5.087,3.548 8.47,3.548c2.518,0 4.667,-0.661 6.448,-1.984c1.78,-1.323 3.192,-3.434 4.235,-6.333Zm-22.548,-11.102l22.625,0c-0.305,-3.408 -1.17,-5.965 -2.594,-7.669c-2.187,-2.645 -5.023,-3.968 -8.508,-3.968c-3.154,0 -5.806,1.056 -7.955,3.167c-2.149,2.111 -3.338,4.934 -3.567,8.47Z" style="fill-rule:nonzero;"/><path d="M925.983,312.76l0,-40.518l6.181,0l0,5.761c2.976,-4.451 7.274,-6.677 12.896,-6.677c2.442,0 4.686,0.439 6.734,1.316c2.048,0.878 3.58,2.028 4.597,3.453c1.017,1.424 1.73,3.116 2.137,5.074c0.254,1.272 0.382,3.497 0.382,6.677l0,24.914l-6.868,0l0,-24.647c0,-2.798 -0.267,-4.89 -0.801,-6.276c-0.534,-1.386 -1.482,-2.493 -2.842,-3.319c-1.361,-0.827 -2.957,-1.24 -4.788,-1.24c-2.925,0 -5.449,0.928 -7.573,2.785c-2.124,1.857 -3.186,5.38 -3.186,10.568l0,22.129l-6.868,0Z" style="fill-rule:nonzero;"/><path d="M995.879,297.919l6.753,0.878c-0.738,4.655 -2.626,8.298 -5.666,10.931c-3.04,2.633 -6.772,3.949 -11.198,3.949c-5.545,0 -10.002,-1.812 -13.373,-5.437c-3.37,-3.625 -5.055,-8.82 -5.055,-15.585c0,-4.375 0.725,-8.203 2.175,-11.484c1.45,-3.281 3.656,-5.742 6.62,-7.383c2.963,-1.641 6.187,-2.461 9.672,-2.461c4.4,0 7.999,1.113 10.797,3.338c2.798,2.226 4.591,5.386 5.38,9.481l-6.677,1.03c-0.636,-2.722 -1.761,-4.769 -3.377,-6.143c-1.615,-1.374 -3.567,-2.06 -5.856,-2.06c-3.459,0 -6.27,1.24 -8.432,3.72c-2.162,2.48 -3.243,6.403 -3.243,11.77c0,5.443 1.043,9.398 3.129,11.866c2.086,2.467 4.807,3.701 8.165,3.701c2.696,0 4.947,-0.827 6.753,-2.48c1.806,-1.653 2.95,-4.197 3.434,-7.631Z" style="fill-rule:nonzero;"/><path d="M1036.245,299.712l7.096,0.878c-1.119,4.146 -3.192,7.364 -6.219,9.653c-3.027,2.289 -6.893,3.434 -11.598,3.434c-5.926,0 -10.626,-1.825 -14.097,-5.475c-3.472,-3.65 -5.208,-8.769 -5.208,-15.357c0,-6.817 1.755,-12.107 5.265,-15.872c3.51,-3.764 8.063,-5.647 13.659,-5.647c5.418,0 9.843,1.844 13.277,5.532c3.434,3.688 5.151,8.877 5.151,15.566c0,0.407 -0.013,1.017 -0.038,1.831l-30.217,0c0.254,4.451 1.513,7.859 3.777,10.225c2.264,2.365 5.087,3.548 8.47,3.548c2.518,0 4.667,-0.661 6.448,-1.984c1.78,-1.323 3.192,-3.434 4.235,-6.333Zm-22.548,-11.102l22.625,0c-0.305,-3.408 -1.17,-5.965 -2.594,-7.669c-2.187,-2.645 -5.023,-3.968 -8.508,-3.968c-3.154,0 -5.806,1.056 -7.955,3.167c-2.149,2.111 -3.338,4.934 -3.567,8.47Z" style="fill-rule:nonzero;"/><path d="M1061.739,292.89l0,-21.182l-8.058,0l0,-3.693l20.328,0l0,3.693l-8.119,0l0,21.182l-4.151,0Zm15.047,0l0,-24.876l6.104,0l6.288,19.87l6.074,-19.87l5.982,0l0,24.876l-3.785,0l0,-20.877l-6.41,20.877l-3.754,0l-6.684,-21.182l0,21.182l-3.815,0Z" style="fill-rule:nonzero;"/></g><rect x="849.253" y="84.263" width="86.76" height="129.395" style="fill:#00ff67;"/><g><path d="M0,75.949l45.57,0l34.599,92.827l0.563,0l32.067,-92.827l42.475,0l-54.008,136.709l-44.726,0l-56.54,-136.709Z" style="fill-rule:nonzero;"/><path d="M170.745,75.949l42.194,0l0,21.941l0.563,0c4.501,-8.439 9.845,-14.768 16.034,-18.987c6.188,-4.219 13.971,-6.329 23.347,-6.329c2.438,0 4.876,0.094 7.314,0.281c2.438,0.188 4.688,0.563 6.751,1.125l0,38.537c-3,-0.938 -5.954,-1.641 -8.861,-2.11c-2.907,-0.469 -5.954,-0.703 -9.142,-0.703c-8.064,0 -14.44,1.125 -19.128,3.376c-4.688,2.25 -8.298,5.391 -10.83,9.423c-2.532,4.032 -4.173,8.861 -4.923,14.487c-0.75,5.626 -1.125,11.814 -1.125,18.565l0,57.103l-42.194,0l0,-136.709Z" style="fill-rule:nonzero;"/><path d="M409.563,189.029c-6.751,8.626 -15.284,15.284 -25.598,19.972c-10.314,4.688 -21.003,7.032 -32.067,7.032c-10.502,0 -20.394,-1.688 -29.676,-5.063c-9.283,-3.376 -17.346,-8.204 -24.191,-14.487c-6.845,-6.282 -12.236,-13.83 -16.174,-22.644c-3.938,-8.814 -5.907,-18.659 -5.907,-29.536c0,-10.877 1.969,-20.722 5.907,-29.536c3.938,-8.814 9.33,-16.362 16.174,-22.644c6.845,-6.282 14.909,-11.111 24.191,-14.487c9.283,-3.376 19.175,-5.063 29.676,-5.063c9.752,0 18.612,1.688 26.582,5.063c7.97,3.376 14.721,8.204 20.253,14.487c5.532,6.282 9.798,13.83 12.799,22.644c3,8.814 4.501,18.659 4.501,29.536l0,13.221l-97.89,0c1.688,8.064 5.345,14.487 10.97,19.269c5.626,4.782 12.564,7.173 20.816,7.173c6.939,0 12.799,-1.547 17.581,-4.641c4.782,-3.094 8.955,-7.079 12.518,-11.955l29.536,21.66Zm-35.724,-60.197c0.188,-7.126 -2.157,-13.221 -7.032,-18.284c-4.876,-5.063 -11.158,-7.595 -18.847,-7.595c-4.688,0 -8.814,0.75 -12.377,2.25c-3.563,1.5 -6.61,3.422 -9.142,5.767c-2.532,2.344 -4.501,5.063 -5.907,8.158c-1.406,3.094 -2.203,6.329 -2.391,9.705l55.696,0Z" style="fill-rule:nonzero;"/><path d="M571.026,189.029c-6.751,8.626 -15.284,15.284 -25.598,19.972c-10.314,4.688 -21.003,7.032 -32.067,7.032c-10.502,0 -20.394,-1.688 -29.676,-5.063c-9.283,-3.376 -17.346,-8.204 -24.191,-14.487c-6.845,-6.282 -12.236,-13.83 -16.174,-22.644c-3.938,-8.814 -5.907,-18.659 -5.907,-29.536c0,-10.877 1.969,-20.722 5.907,-29.536c3.938,-8.814 9.33,-16.362 16.174,-22.644c6.845,-6.282 14.909,-11.111 24.191,-14.487c9.283,-3.376 19.175,-5.063 29.676,-5.063c9.752,0 18.612,1.688 26.582,5.063c7.97,3.376 14.721,8.204 20.253,14.487c5.532,6.282 9.798,13.83 12.799,22.644c3,8.814 4.501,18.659 4.501,29.536l0,13.221l-97.89,0c1.688,8.064 5.345,14.487 10.97,19.269c5.626,4.782 12.564,7.173 20.816,7.173c6.939,0 12.799,-1.547 17.581,-4.641c4.782,-3.094 8.955,-7.079 12.518,-11.955l29.536,21.66Zm-35.724,-60.197c0.188,-7.126 -2.157,-13.221 -7.032,-18.284c-4.876,-5.063 -11.158,-7.595 -18.847,-7.595c-4.688,0 -8.814,0.75 -12.377,2.25c-3.563,1.5 -6.61,3.422 -9.142,5.767c-2.532,2.344 -4.501,5.063 -5.907,8.158c-1.406,3.094 -2.203,6.329 -2.391,9.705l55.696,0Z" style="fill-rule:nonzero;"/><rect x="603.656" y="0" width="42.194" height="212.658" style="fill-rule:nonzero;"/><path d="M671.166,144.304c0,-10.877 1.969,-20.722 5.907,-29.536c3.938,-8.814 9.33,-16.362 16.174,-22.644c6.845,-6.282 14.909,-11.111 24.191,-14.487c9.283,-3.376 19.175,-5.063 29.676,-5.063c10.502,0 20.394,1.688 29.676,5.063c9.283,3.376 17.346,8.204 24.191,14.487c6.845,6.282 12.236,13.83 16.174,22.644c3.938,8.814 5.907,18.659 5.907,29.536c0,10.877 -1.969,20.722 -5.907,29.536c-3.938,8.814 -9.33,16.362 -16.174,22.644c-6.845,6.282 -14.909,11.111 -24.191,14.487c-9.283,3.376 -19.175,5.063 -29.676,5.063c-10.502,0 -20.394,-1.688 -29.676,-5.063c-9.283,-3.376 -17.346,-8.204 -24.191,-14.487c-6.845,-6.282 -12.236,-13.83 -16.174,-22.644c-3.938,-8.814 -5.907,-18.659 -5.907,-29.536Zm42.194,0c0,10.314 2.954,18.659 8.861,25.035c5.907,6.376 14.205,9.564 24.894,9.564c10.689,0 18.987,-3.188 24.894,-9.564c5.907,-6.376 8.861,-14.721 8.861,-25.035c0,-10.314 -2.954,-18.659 -8.861,-25.035c-5.907,-6.376 -14.205,-9.564 -24.894,-9.564c-10.689,0 -18.987,3.188 -24.894,9.564c-5.907,6.376 -8.861,14.721 -8.861,25.035Z" style="fill-rule:nonzero;"/></g></g></svg>