<svg width="20" height="20" viewBox="0 0 20 20" fill="none" xmlns="http://www.w3.org/2000/svg">
<path d="M8.10832 7.68815C9.19003 7.56726 10.31 7.56726 11.3917 7.68815C11.6077 7.7123 11.7766 7.88371 11.8005 8.08798C11.9296 9.19223 11.9296 10.3078 11.8005 11.412C11.7766 11.6163 11.6077 11.7877 11.3917 11.8119C10.31 11.9327 9.19003 11.9327 8.10832 11.8119C7.89227 11.7877 7.72339 11.6163 7.69949 11.412C7.57034 10.3078 7.57034 9.19223 7.69949 8.08798C7.72339 7.88371 7.89227 7.7123 8.10832 7.68815Z" fill="#02d02fff"/>
<path fill-rule="evenodd" clip-rule="evenodd" d="M12.75 0C13.1642 0 13.5 0.335786 13.5 0.75V3.6765C14.6634 3.90719 15.5895 4.82626 15.8081 6H18.75C19.1642 6 19.5 6.33579 19.5 6.75C19.5 7.16421 19.1642 7.5 18.75 7.5H15.9619C15.9987 7.99947 16.0233 8.49962 16.0355 9H17.75C18.1642 9 18.5 9.33579 18.5 9.75C18.5 10.1642 18.1642 10.5 17.75 10.5H16.0355C16.0233 11.0004 15.9987 11.5005 15.9619 12H18.75C19.1642 12 19.5 12.3358 19.5 12.75C19.5 13.1642 19.1642 13.5 18.75 13.5H15.8081C15.5895 14.6737 14.6634 15.5928 13.5 15.8235V18.75C13.5 19.1642 13.1642 19.5 12.75 19.5C12.3358 19.5 12 19.1642 12 18.75V15.9758C11.5018 16.011 11.0013 16.0345 10.5 16.0463V17.75C10.5 18.1642 10.1642 18.5 9.75 18.5C9.33579 18.5 9 18.1642 9 17.75V16.0463C8.49874 16.0345 7.99824 16.011 7.5 15.9758V18.75C7.5 19.1642 7.16421 19.5 6.75 19.5C6.33579 19.5 6 19.1642 6 18.75V15.8235C4.83663 15.5928 3.91054 14.6737 3.69186 13.5H0.75C0.335786 13.5 0 13.1642 0 12.75C0 12.3358 0.335786 12 0.75 12H3.53807C3.50126 11.5005 3.47673 11.0004 3.46446 10.5H1.75C1.33579 10.5 1 10.1642 1 9.75C1 9.33579 1.33579 9 1.75 9H3.46446C3.47673 8.49962 3.50126 7.99947 3.53807 7.5H0.75C0.335787 7.5 0 7.16421 0 6.75C0 6.33579 0.335787 6 0.75 6H3.69186C3.91054 4.82626 4.83663 3.90719 6 3.67651V0.75C6 0.335786 6.33579 0 6.75 0C7.16421 0 7.5 0.335786 7.5 0.75V3.52424C7.99824 3.48897 8.49874 3.46547 9 3.45373V1.75C9 1.33579 9.33579 1 9.75 1C10.1642 1 10.5 1.33579 10.5 1.75V3.45373C11.0013 3.46547 11.5018 3.48897 12 3.52424V0.75C12 0.335786 12.3358 0 12.75 0ZM11.5583 6.19743C10.3658 6.06416 9.13414 6.06416 7.94171 6.19743C7.04371 6.2978 6.31598 7.0046 6.20965 7.91373C6.06696 9.13375 6.06696 10.3663 6.20965 11.5863C6.31598 12.4954 7.04371 13.2022 7.94171 13.3026C9.13414 13.4358 10.3658 13.4358 11.5583 13.3026C12.4563 13.2022 13.184 12.4954 13.2903 11.5863C13.433 10.3663 13.433 9.13375 13.2903 7.91373C13.184 7.0046 12.4563 6.2978 11.5583 6.19743Z" fill="#44ff00ff"/>
</svg>
